<svg xmlns="http://www.w3.org/2000/svg" width="178" height="178" viewBox="0 0 178 178" fill="none">
  <path d="M178 133.5C178 145.196 178 151.044 176.486 155.784C173.342 165.628 165.628 173.342 155.784 176.486C151.044 178 145.196 178 133.5 178L89 178C89 178 -2.12193e-05 178 89 89C102.353 89 118.581 89 133.506 89C145.198 89 151.044 89 155.784 90.5138C165.628 93.6579 173.342 101.372 176.486 111.216C178 115.956 178 121.804 178 133.5Z" fill="white"/>
  <path d="M89 89C75.6473 89 59.4187 89 44.4944 89C32.8021 89 26.9559 89 22.2163 87.4863C12.3719 84.3421 4.65789 76.6281 1.51373 66.7837C-2.12193e-05 62.0441 -2.12193e-05 56.1961 -2.12193e-05 44.5C-2.12193e-05 32.8039 -2.12193e-05 26.9559 1.51373 22.2163C4.65789 12.3719 12.3719 4.65789 22.2163 1.51373C26.9559 -2.12193e-05 32.8039 -2.12193e-05 44.5 -2.12193e-05L89 -2.12193e-05C89 -2.12193e-05 178 3.98159e-05 89 89Z" fill="white"/>
</svg>